<svg version="1.1" id="Layer_1" xmlns="http://www.w3.org/2000/svg" xmlns:xlink="http://www.w3.org/1999/xlink" x="0px" y="0px"
	 width="100%" viewBox="0 0 1334 1334" enable-background="new 0 0 1334 1334" xml:space="preserve">
<path fill="#7F5B45" opacity="1.000000" stroke="none" 
	d="
M1.000000,1334.000000 
	C1.000000,889.733643 1.000000,445.467285 1.000000,1.000000 
	C445.032684,1.000000 889.065430,1.000000 1333.542480,1.463847 
	C1333.984375,443.413940 1333.981812,884.900208 1333.980103,1326.386475 
	C1333.980103,1334.001099 1333.985474,1334.001465 1326.459106,1334.001465 
	C884.639404,1334.000977 442.819702,1334.000488 1.000000,1334.000000 
M438.806061,682.404663 
	C439.461700,677.485535 440.117310,672.566406 440.789673,667.521851 
	C440.241791,667.703125 439.852112,667.716736 439.649719,667.918396 
	C438.589722,668.974304 437.562408,670.064270 436.550354,671.166809 
	C414.702423,694.968201 391.113159,716.606689 362.278107,731.898682 
	C346.831299,740.090515 331.411865,748.360657 316.292908,757.134460 
	C306.481232,762.828308 299.639465,771.517395 296.203461,782.408081 
	C290.417755,800.746277 286.959961,819.567444 285.750275,838.767761 
	C285.147949,848.327881 291.294159,854.469727 300.776703,853.589111 
	C311.542450,852.589355 322.336090,851.593811 333.001892,849.877380 
	C353.503815,846.578186 373.241364,840.817627 391.312439,830.149048 
	C397.555176,826.463501 401.737854,821.675964 402.863647,814.236755 
	C404.731537,801.894165 406.942596,789.603149 409.049408,777.297302 
	C409.684601,773.587341 410.453308,769.900269 411.160828,766.202698 
	C412.852386,770.978760 413.235016,775.598755 413.969757,780.162048 
	C419.067474,811.824951 433.367249,829.588623 463.633820,837.411316 
	C495.591766,845.671143 528.042175,850.202454 560.821533,851.609009 
	C595.745056,853.107544 630.756287,853.422546 665.715698,853.033386 
	C727.531677,852.345215 789.272095,849.783691 850.601257,841.111389 
	C856.031677,840.343506 860.252014,838.368103 863.728577,833.998657 
	C875.888367,818.715698 884.949097,801.799988 891.423279,783.417542 
	C895.063843,773.080688 895.698608,762.622559 890.863708,752.748230 
	C885.982849,742.779968 880.069153,733.305786 874.393494,723.742493 
	C870.885620,717.831848 865.341797,715.702332 858.608459,716.360840 
	C834.083984,718.759277 809.555786,721.119263 785.033447,723.538940 
	C757.363770,726.269104 729.754028,730.061829 702.019104,731.572998 
	C658.059570,733.968079 614.076660,732.256226 570.187378,728.747437 
	C564.472839,728.290588 558.776062,727.611694 553.071045,727.035645 
	C554.230103,725.175659 555.538513,724.258667 556.933533,723.501221 
	C582.843079,709.434448 610.832947,702.411682 639.968201,700.068420 
	C657.917053,698.624878 671.556152,691.567749 680.885254,675.711243 
	C692.112122,656.628906 704.142639,638.019592 715.810425,619.196350 
	C719.176636,613.765930 722.492126,608.304016 725.830811,602.856506 
	C652.748596,673.503723 565.811157,717.152100 465.520050,738.231140 
	C469.489014,740.164917 472.026459,741.801270 474.803253,742.688232 
	C491.112885,747.898254 507.253967,753.874939 523.870728,757.835938 
	C561.227417,766.740723 599.364441,770.504822 637.651245,772.623596 
	C673.447632,774.604492 709.289734,775.476990 745.021179,772.044312 
	C779.982849,768.685547 814.847351,764.322144 849.768799,760.531372 
	C857.379333,759.705200 865.045776,759.110901 872.694885,759.002747 
	C880.619202,758.890686 884.272034,764.426575 881.345703,771.646851 
	C879.221924,776.886902 876.760925,781.992920 874.372559,787.122498 
	C871.603577,793.069580 866.814758,796.157776 860.369385,797.017090 
	C815.126221,803.048828 769.775024,808.101501 724.161499,810.100525 
	C656.699341,813.057190 589.245117,813.641724 522.013855,805.825928 
	C500.645813,803.341797 479.587585,799.181519 459.518799,790.910034 
	C449.418274,786.747192 441.759003,780.241821 438.265137,769.806580 
	C436.271301,763.851562 434.798187,757.593262 434.094849,751.358215 
	C431.507446,728.420898 435.479858,705.858826 438.806061,682.404663 
M688.883850,502.364868 
	C689.370728,499.250488 688.996826,495.623322 690.493713,493.110657 
	C696.921265,482.321594 706.073364,474.319885 716.881470,467.818359 
	C728.700500,460.708771 740.097595,452.873322 751.455688,445.031372 
	C757.991150,440.519135 760.712402,433.855377 758.257507,426.184052 
	C754.820190,415.442902 750.706421,404.916473 746.781128,394.335602 
	C746.332336,393.125610 745.237061,392.155487 743.617615,389.954163 
	C743.231262,401.041138 737.070312,407.194489 730.128479,412.529358 
	C721.950745,418.813995 713.569519,424.886536 704.899963,430.466064 
	C691.940308,438.806549 680.485413,448.451904 673.655273,462.629669 
	C671.589783,466.917175 669.889343,471.380585 667.745239,476.412170 
	C667.069214,474.940582 666.607483,474.129425 666.311157,473.261780 
	C660.551758,456.396332 650.126038,443.263947 635.144287,433.586487 
	C626.895447,428.258179 618.734985,422.751129 610.886108,416.856689 
	C601.917297,410.121246 592.564819,403.448242 591.467651,389.472992 
	C583.579834,403.117432 578.186401,416.261963 576.592346,430.692261 
	C576.016663,435.903473 578.050049,440.717468 582.508118,443.773407 
	C594.438843,451.951630 606.304810,460.261902 618.621399,467.828125 
	C629.490662,474.505219 638.669250,482.641327 645.364136,493.494781 
	C648.934021,499.282196 647.596375,504.328583 641.594360,506.409332 
	C616.596252,515.075562 590.944336,518.905029 564.443054,516.789917 
	C556.590759,516.163330 551.816223,512.142456 550.399109,504.932892 
	C548.738037,496.482513 548.055969,487.828217 547.193726,479.237823 
	C546.843018,475.743896 547.135742,472.185364 547.135742,468.656250 
	C544.751953,472.413544 543.149719,476.236633 541.806702,480.148651 
	C536.929016,494.356903 532.480225,508.685974 532.891113,523.951416 
	C533.355042,541.189514 548.540039,557.199219 565.592041,558.009216 
	C591.738647,559.251282 616.771484,554.688416 639.636292,541.450989 
	C643.666748,539.117615 647.361084,534.942627 649.435059,530.741577 
	C654.438477,520.606567 658.367920,509.943115 662.780823,499.514038 
	C664.217163,496.119476 665.809448,492.790833 667.737854,488.532166 
	C668.889404,490.929779 669.577515,492.225250 670.147461,493.570862 
	C675.084534,505.225983 680.185059,516.816895 684.850037,528.580322 
	C687.451843,535.140930 691.634216,539.727234 697.906860,542.943115 
	C719.294617,553.908569 742.016724,558.503052 765.931396,558.186890 
	C788.559570,557.887756 805.369873,538.865601 802.602539,516.467224 
	C800.626648,500.474213 795.956055,485.228180 790.034790,470.318817 
	C789.770142,469.652527 789.211121,469.103210 788.176697,467.622864 
	C788.176697,470.360718 788.278625,471.985840 788.159912,473.594727 
	C787.451233,483.203064 787.353577,492.918304 785.771057,502.383728 
	C784.038574,512.745972 779.699158,516.048462 769.662964,516.845337 
	C743.859192,518.894287 718.847595,514.901611 694.455444,506.608459 
	C692.532959,505.954865 690.961670,504.268524 688.883850,502.364868 
M1023.382996,834.916687 
	C1025.719238,831.963684 1028.773560,829.332458 1030.266479,826.001465 
	C1036.458984,812.185364 1042.433960,798.256470 1047.905273,784.142700 
	C1049.375488,780.350098 1049.810425,775.537842 1048.954956,771.574829 
	C1046.083862,758.272583 1039.908813,746.298157 1029.643066,737.326904 
	C1020.794495,729.594116 1010.700745,723.300903 1001.310913,716.169250 
	C989.098816,706.893982 974.129944,700.088562 970.885193,681.705078 
	C969.544006,683.819336 968.522522,684.956055 968.025696,686.288330 
	C964.201111,696.545715 960.193909,706.748535 956.811157,717.152893 
	C953.957825,725.929321 956.712341,733.293213 964.412537,738.473511 
	C975.307190,745.802795 986.052429,753.410461 997.353149,760.064209 
	C1009.081421,766.969910 1019.014038,775.459045 1026.148926,787.071106 
	C1030.291748,793.813538 1028.706909,798.572693 1021.336792,800.981506 
	C996.747742,809.018188 971.652832,813.415161 945.660217,811.161743 
	C934.713806,810.212646 931.151001,807.394531 928.305481,796.780029 
	C927.619446,794.221130 927.040771,791.577576 926.879028,788.944275 
	C926.313538,779.735596 925.952087,770.514404 925.461792,760.220154 
	C918.172302,778.275330 911.886902,795.597351 911.071960,814.253845 
	C910.133362,835.742310 926.103149,853.093567 947.621216,853.621277 
	C974.224670,854.273560 999.554932,848.884399 1023.382996,834.916687 
M640.324890,325.743134 
	C633.524719,337.497833 626.724609,349.252533 619.870544,361.100372 
	C643.757202,376.907715 666.616577,392.777924 664.998474,426.600983 
	C665.992920,425.027100 666.447266,424.390656 666.818176,423.708893 
	C677.305664,404.429749 687.803223,385.156006 698.252869,365.856445 
	C701.007324,360.769287 701.222778,355.344391 699.799133,349.847015 
	C697.676086,341.648804 693.397705,334.307587 686.299744,330.089569 
	C674.399658,323.017914 661.736450,317.230530 649.121704,310.762939 
	C645.895264,316.274200 643.305603,320.697845 640.324890,325.743134 
M988.936035,1019.387573 
	C989.327698,1016.807190 990.055847,1014.225952 990.048767,1011.646667 
	C990.026306,1003.486938 989.611572,995.327454 989.648743,987.169250 
	C989.655273,985.743225 991.072693,983.117310 991.911011,983.087585 
	C1000.478516,982.783264 1009.060974,982.901367 1017.223755,982.901367 
	C1017.223755,993.248047 1017.461609,1002.716675 1017.138000,1012.166199 
	C1016.931274,1018.203369 1019.376282,1023.104431 1024.994263,1023.594604 
	C1032.298218,1024.231812 1039.699707,1023.750366 1047.683716,1023.750366 
	C1041.997070,1018.746704 1041.132202,1012.579712 1041.017334,1006.408875 
	C1040.750366,992.082092 1040.794312,977.747986 1040.843506,963.417297 
	C1040.869629,955.787659 1039.598755,947.861267 1045.996216,940.997131 
	C1040.208252,940.997131 1035.389526,940.989014 1030.570923,940.998840 
	C1021.147095,941.018005 1017.893311,944.453308 1017.977905,954.088196 
	C1018.045959,961.840515 1017.991699,969.593933 1017.991699,977.799438 
	C1009.517639,977.799438 1001.879578,977.662231 994.249878,977.856934 
	C990.400208,977.955078 989.371887,976.241211 989.487793,972.737000 
	C989.713379,965.911987 989.696777,959.078552 989.749573,952.248352 
	C989.798706,945.890320 986.399353,941.423096 980.682922,941.107056 
	C974.728516,940.777893 968.741760,941.033691 963.968628,941.033691 
	C964.947815,946.043091 966.407837,950.887268 966.734253,955.806763 
	C967.207642,962.941406 966.904846,970.130737 966.855469,977.296204 
	C966.784302,987.624817 966.851929,997.960999 966.451721,1008.278198 
	C966.223572,1014.160828 965.113770,1019.981689 958.859009,1023.986877 
	C966.433472,1023.986877 973.124084,1024.389771 979.727539,1023.806213 
	C982.742371,1023.539795 985.585144,1021.327698 988.936035,1019.387573 
M359.429199,1017.892639 
	C375.209564,1009.089355 383.062988,994.034424 380.634064,977.243286 
	C378.091461,959.666748 366.119385,946.631226 348.164551,943.126404 
	C340.893738,941.707092 333.288818,941.763428 325.826630,941.615051 
	C314.252472,941.384827 302.670380,941.554260 292.218384,941.554260 
	C293.290894,945.828003 295.356537,950.361511 295.409149,954.918335 
	C295.620483,973.234558 295.320496,991.560303 294.958649,1009.877563 
	C294.852112,1015.270081 293.321533,1020.356689 287.429596,1023.919800 
	C304.480774,1023.919800 320.622650,1024.498169 336.691040,1023.662720 
	C344.126770,1023.276062 351.419098,1020.132568 359.429199,1017.892639 
M659.435059,953.040771 
	C658.819397,945.792053 656.105042,941.857666 650.273926,941.278748 
	C645.057922,940.760925 639.750000,941.169800 635.205200,941.169800 
	C636.030212,944.798889 637.447632,948.211792 637.479431,951.637451 
	C637.668030,971.957153 637.673889,992.281799 637.387268,1012.599731 
	C637.333862,1016.382019 635.670715,1020.141541 634.726318,1024.010742 
	C637.038940,1024.010742 640.356812,1024.014282 643.674622,1024.010132 
	C655.919250,1023.994812 659.500793,1020.463928 659.541626,1008.343628 
	C659.558777,1003.260803 659.544495,998.177856 659.544495,993.094971 
	C660.106812,992.752747 660.669067,992.410583 661.231384,992.068359 
	C663.596680,993.801819 666.397705,995.167542 668.235962,997.345642 
	C671.984253,1001.786865 675.208374,1006.669861 678.658508,1011.363342 
	C683.285461,1017.657593 689.266296,1022.440186 697.066956,1023.134766 
	C705.693970,1023.903015 714.442261,1023.310364 721.256897,1023.310364 
	C717.681213,1020.982910 712.328125,1018.232422 707.895203,1014.413757 
	C703.139282,1010.316650 699.197815,1005.260559 694.990662,1000.542847 
	C685.750854,990.181885 675.968628,981.042480 659.502686,984.966736 
	C659.502686,974.151794 659.502686,964.043762 659.435059,953.040771 
M433.498962,906.179199 
	C487.550842,906.179199 541.602722,906.179199 595.375305,906.179199 
	C596.889282,900.764893 595.614136,899.058533 590.627319,899.064880 
	C490.988678,899.191833 391.349823,899.159302 291.711029,899.171875 
	C289.926697,899.172119 288.142365,899.328735 286.205902,899.419495 
	C286.205902,901.806458 286.205902,903.711548 286.205902,906.179138 
	C335.228394,906.179138 383.863617,906.179138 433.498962,906.179199 
M750.597229,906.188110 
	C846.408813,906.185791 942.220398,906.183350 1038.031982,906.181580 
	C1040.364746,906.181580 1042.703125,906.291199 1045.028809,906.165344 
	C1047.284912,906.043274 1049.814087,906.362549 1049.870850,902.723755 
	C1049.932861,898.735046 1047.288452,899.161926 1044.790283,899.161682 
	C944.979614,899.152405 845.168945,899.143616 745.358276,899.153870 
	C739.917908,899.154419 739.643127,899.608948 740.925049,906.190308 
	C743.727661,906.190308 746.681152,906.190308 750.597229,906.188110 
M840.367126,942.749084 
	C839.158508,943.506042 837.458618,943.974365 836.817871,945.065002 
	C831.085876,954.820984 825.764954,964.823059 819.890381,974.489746 
	C809.680359,991.290466 802.510864,1010.141968 786.326965,1023.903381 
	C792.104065,1023.903381 797.042297,1024.075806 801.962097,1023.848999 
	C805.924927,1023.666138 808.544128,1020.950134 807.945312,1017.290710 
	C806.522644,1008.595947 810.695801,1001.784119 814.372864,994.739075 
	C819.119812,985.644226 824.017700,976.628174 828.933472,967.422974 
	C829.787659,968.092407 830.308899,968.307983 830.518616,968.693176 
	C838.070679,982.567261 845.692749,996.405457 853.010681,1010.402527 
	C854.071411,1012.431519 854.338562,1015.419617 853.734314,1017.624512 
	C853.108276,1019.908997 850.975342,1021.780579 849.389648,1023.988586 
	C855.779541,1023.988586 862.257935,1024.068970 868.733582,1023.970032 
	C878.885193,1023.815002 883.012329,1016.606018 877.913757,1007.703918 
	C865.589355,986.185608 853.135132,964.741638 840.367126,942.749084 
M483.232178,1024.047607 
	C484.015564,1023.982483 484.798920,1023.917297 485.832031,1023.831360 
	C480.136353,1019.003479 479.134430,1015.456543 482.502167,1008.882935 
	C488.112213,997.932617 494.109100,987.180115 499.976349,976.362366 
	C501.603577,973.362122 503.348419,970.425720 505.550812,966.562805 
	C511.700470,978.174744 517.368286,988.868713 523.027832,999.567078 
	C525.784546,1004.778137 527.780762,1010.049316 526.941040,1016.241394 
	C526.302124,1020.953186 528.742554,1023.645935 533.369873,1023.913330 
	C538.246155,1024.195190 543.151306,1023.976501 547.673218,1023.976501 
	C525.082214,999.788940 513.857300,968.574219 495.683685,941.775269 
	C495.042297,942.322266 494.709412,942.487366 494.554260,942.755371 
	C481.720490,964.922852 468.780975,987.030518 456.150635,1009.313538 
	C452.233398,1016.224487 456.574127,1023.516174 464.527557,1023.917236 
	C470.505188,1024.218750 476.508972,1024.002930 483.232178,1024.047607 
M355.411957,687.050293 
	C363.207977,693.863037 368.486877,702.117371 369.848602,712.792358 
	C374.582184,703.669556 378.696594,694.587646 383.019958,685.606384 
	C391.159149,668.698120 380.791748,652.568665 360.247223,648.038635 
	C356.589783,655.800903 352.917877,663.627808 349.216003,671.440552 
	C345.655182,678.955811 345.645660,678.944275 352.248596,684.269836 
	C353.155060,685.000977 353.997498,685.811462 355.411957,687.050293 
M324.781616,707.028198 
	C325.733734,710.434937 326.685852,713.841675 327.830444,717.937012 
	C332.275452,708.559509 336.481201,699.722656 340.645569,690.866394 
	C341.352234,689.363647 341.985474,687.809631 342.475708,686.224548 
	C345.664093,675.915222 342.139099,665.515991 333.166626,659.447937 
	C329.730713,657.124268 325.903076,655.387817 322.333038,653.251648 
	C319.747772,651.704651 318.205811,652.136536 316.918884,654.990540 
	C313.085449,663.491760 309.151733,671.951965 305.036133,680.319458 
	C303.637695,683.162659 304.202240,684.615417 306.767059,686.407227 
	C314.214783,691.610168 320.623688,697.860168 324.781616,707.028198 
M780.250305,673.849915 
	C780.096313,676.140442 780.330627,678.543640 779.705566,680.697510 
	C778.490967,684.882629 773.326111,687.863586 769.486877,686.784241 
	C764.894043,685.493164 764.021667,681.927368 764.404419,677.735596 
	C764.692017,674.585876 764.977051,671.435608 765.221802,668.282410 
	C765.533142,664.271973 765.802551,660.258240 766.112793,655.927979 
	C763.953369,656.200378 762.801086,656.287781 761.671448,656.497192 
	C751.478088,658.386475 749.323547,661.690186 751.746338,671.640015 
	C752.297424,673.903198 752.822937,676.172852 753.339294,678.444275 
	C754.171326,682.104126 753.139832,685.320923 749.853577,686.971008 
	C747.877441,687.963257 744.121033,688.719238 743.148865,687.696106 
	C741.263428,685.711670 740.013367,682.432129 739.885254,679.626038 
	C739.674866,675.015137 740.874817,670.350037 740.815491,665.716248 
	C740.796814,664.259338 738.600891,661.571777 737.479187,661.612122 
	C733.291626,661.762451 729.136353,662.811096 725.741699,663.390808 
	C726.592346,666.906738 727.535034,669.757568 727.940674,672.682861 
	C729.012695,680.414795 732.009338,686.915833 739.642456,689.935059 
	C746.859070,692.789551 752.977417,690.326599 758.078857,684.815491 
	C758.382507,684.487549 758.936340,684.391357 759.331970,684.206848 
	C773.451233,694.410339 787.082092,689.899597 790.375427,673.616211 
	C791.838684,666.381165 791.968872,658.876526 792.765686,650.876526 
	C789.212891,651.473145 786.422791,651.763611 783.726196,652.431396 
	C778.032410,653.841553 776.184265,656.985168 777.499451,662.828064 
	C778.266357,666.235291 779.202637,669.604431 780.250305,673.849915 
M651.892029,902.561646 
	C651.813599,900.234436 652.199951,897.752563 651.495178,895.633728 
	C651.017212,894.196960 648.856689,892.159363 647.708740,892.314514 
	C643.586243,892.871704 639.574280,894.247192 636.173889,895.141418 
	C637.333008,898.366760 638.509338,900.830750 639.097534,903.427979 
	C640.894958,911.364075 644.431824,917.835327 652.799500,920.299622 
	C660.675659,922.619202 666.258911,918.844116 670.965881,913.039612 
	C671.060425,912.923096 671.259949,912.891663 671.637695,912.713074 
	C672.924072,913.456421 674.298950,914.346008 675.753784,915.076355 
	C685.685181,920.062256 697.413940,916.167908 700.026245,905.555908 
	C702.269348,896.443542 701.894348,886.686707 702.750610,876.325500 
	C699.207031,877.213501 697.271179,877.596375 695.400085,878.185242 
	C686.894531,880.862000 685.636230,883.360779 688.422241,891.772217 
	C689.623840,895.399902 691.211182,898.961792 691.889709,902.687195 
	C693.119446,909.439331 687.881531,915.278992 681.795837,914.309509 
	C676.938660,913.535767 676.034180,909.885437 676.022461,905.759033 
	C676.002319,898.683472 676.016907,891.607849 676.016907,884.031311 
	C673.524658,884.560974 671.914490,884.832031 670.343140,885.249023 
	C661.972412,887.470215 659.903259,891.287476 662.550171,899.569946 
	C663.461060,902.420288 665.112122,905.256409 665.130005,908.107178 
	C665.147705,910.939575 664.227539,914.407959 662.410889,916.412170 
	C661.080322,917.880310 656.924500,918.557312 655.317627,917.543213 
	C653.444580,916.361206 652.616821,913.039490 652.006775,910.485901 
	C651.480042,908.280945 651.894104,905.851135 651.892029,902.561646 
M674.463928,957.182068 
	C674.026245,964.204590 673.588623,971.227051 673.199463,977.471252 
	C680.093506,973.993286 686.460327,970.781311 693.751221,967.103149 
	C693.751221,962.794006 693.877991,957.155884 693.623230,951.535034 
	C693.581970,950.625305 691.882629,949.089111 690.887878,949.037720 
	C684.296997,948.697083 678.161621,949.683533 674.463928,957.182068 
M312.865479,612.392700 
	C312.865479,608.332153 312.865479,604.271606 312.865479,598.851685 
	C310.592896,600.574036 309.124390,601.275513 308.282349,602.432739 
	C307.302582,603.779358 306.871277,605.525085 305.771332,608.109375 
	C304.712433,605.224548 304.344147,603.379822 303.383972,601.926025 
	C302.822968,601.076599 301.316345,600.851685 300.235138,600.345764 
	C299.959259,604.658569 299.682159,608.971313 299.427490,613.285400 
	C299.425323,613.322205 299.725769,613.376892 300.937225,613.729492 
	C301.263336,613.065918 301.832001,611.908752 302.743073,610.054932 
	C303.693817,611.878479 304.292694,613.027161 305.339752,615.035461 
	C307.153717,612.014954 308.180176,610.305725 308.852875,609.185608 
	C310.104523,610.516052 311.306824,611.794006 312.865479,612.392700 
M293.820648,599.869995 
	C291.469269,599.976379 289.117859,600.082764 288.115326,600.128113 
	C289.139923,604.966187 290.043365,609.232300 290.946838,613.498352 
	C291.427979,613.493164 291.909149,613.487976 292.390320,613.482727 
	C292.536407,611.053894 292.301453,608.518555 292.941406,606.227661 
	C293.520782,604.153320 295.054657,602.345642 296.198822,600.366455 
	C295.829834,600.271729 295.197845,600.109558 293.820648,599.869995 
z"/>
<path fill="#C6A791" opacity="1.000000" stroke="none" 
	d="
M1.000000,1334.500000 
	C442.819702,1334.000488 884.639404,1334.000977 1326.459106,1334.001465 
	C1333.985474,1334.001465 1333.980103,1334.001099 1333.980103,1326.386475 
	C1333.981812,884.900208 1333.984375,443.413940 1333.993408,1.463843 
	C1334.333374,1.166566 1334.943848,1.315720 1334.955444,1.502510 
	C1335.038940,2.830357 1335.000000,4.165887 1335.000000,5.498971 
	C1335.000000,448.582733 1335.000000,891.666504 1335.000000,1335.000000 
	C890.333374,1335.000000 445.666687,1335.000000 1.000000,1334.500000 
z"/>
<path fill="#CEC4B5" opacity="1.000000" stroke="none" 
	d="
M438.742065,682.838379 
	C435.479858,705.858826 431.507446,728.420898 434.094849,751.358215 
	C434.798187,757.593262 436.271301,763.851562 438.265137,769.806580 
	C441.759003,780.241821 449.418274,786.747192 459.518799,790.910034 
	C479.587585,799.181519 500.645813,803.341797 522.013855,805.825928 
	C589.245117,813.641724 656.699341,813.057190 724.161499,810.100525 
	C769.775024,808.101501 815.126221,803.048828 860.369385,797.017090 
	C866.814758,796.157776 871.603577,793.069580 874.372559,787.122498 
	C876.760925,781.992920 879.221924,776.886902 881.345703,771.646851 
	C884.272034,764.426575 880.619202,758.890686 872.694885,759.002747 
	C865.045776,759.110901 857.379333,759.705200 849.768799,760.531372 
	C814.847351,764.322144 779.982849,768.685547 745.021179,772.044312 
	C709.289734,775.476990 673.447632,774.604492 637.651245,772.623596 
	C599.364441,770.504822 561.227417,766.740723 523.870728,757.835938 
	C507.253967,753.874939 491.112885,747.898254 474.803253,742.688232 
	C472.026459,741.801270 469.489014,740.164917 465.520050,738.231140 
	C565.811157,717.152100 652.748596,673.503723 725.830811,602.856506 
	C722.492126,608.304016 719.176636,613.765930 715.810425,619.196350 
	C704.142639,638.019592 692.112122,656.628906 680.885254,675.711243 
	C671.556152,691.567749 657.917053,698.624878 639.968201,700.068420 
	C610.832947,702.411682 582.843079,709.434448 556.933533,723.501221 
	C555.538513,724.258667 554.230103,725.175659 553.071045,727.035645 
	C558.776062,727.611694 564.472839,728.290588 570.187378,728.747437 
	C614.076660,732.256226 658.059570,733.968079 702.019104,731.572998 
	C729.754028,730.061829 757.363770,726.269104 785.033447,723.538940 
	C809.555786,721.119263 834.083984,718.759277 858.608459,716.360840 
	C865.341797,715.702332 870.885620,717.831848 874.393494,723.742493 
	C880.069153,733.305786 885.982849,742.779968 890.863708,752.748230 
	C895.698608,762.622559 895.063843,773.080688 891.423279,783.417542 
	C884.949097,801.799988 875.888367,818.715698 863.728577,833.998657 
	C860.252014,838.368103 856.031677,840.343506 850.601257,841.111389 
	C789.272095,849.783691 727.531677,852.345215 665.715698,853.033386 
	C630.756287,853.422546 595.745056,853.107544 560.821533,851.609009 
	C528.042175,850.202454 495.591766,845.671143 463.633820,837.411316 
	C433.367249,829.588623 419.067474,811.824951 413.969757,780.162048 
	C413.235016,775.598755 412.852386,770.978760 411.160828,766.202698 
	C410.453308,769.900269 409.684601,773.587341 409.049408,777.297302 
	C406.942596,789.603149 404.731537,801.894165 402.863647,814.236755 
	C401.737854,821.675964 397.555176,826.463501 391.312439,830.149048 
	C373.241364,840.817627 353.503815,846.578186 333.001892,849.877380 
	C322.336090,851.593811 311.542450,852.589355 300.776703,853.589111 
	C291.294159,854.469727 285.147949,848.327881 285.750275,838.767761 
	C286.959961,819.567444 290.417755,800.746277 296.203461,782.408081 
	C299.639465,771.517395 306.481232,762.828308 316.292908,757.134460 
	C331.411865,748.360657 346.831299,740.090515 362.278107,731.898682 
	C391.113159,716.606689 414.702423,694.968201 436.550354,671.166809 
	C437.562408,670.064270 438.589722,668.974304 439.649719,667.918396 
	C439.852112,667.716736 440.241791,667.703125 440.789673,667.521851 
	C440.117310,672.566406 439.461700,677.485535 438.742065,682.838379 
M396.857605,765.263062 
	C399.081787,757.007202 401.305969,748.751282 403.874542,739.217102 
	C397.998535,741.452209 393.422333,743.280396 388.786377,744.941833 
	C364.014526,753.819458 339.525909,763.296875 316.715942,776.669128 
	C303.380615,784.486877 302.264435,797.824707 299.648743,811.321716 
	C301.738556,811.321716 303.036957,811.425781 304.314484,811.306274 
	C326.664062,809.216553 348.274658,803.958801 369.114288,795.686340 
	C382.906586,790.211365 392.237213,780.347839 396.857605,765.263062 
z"/>
<path fill="#CEC3B5" opacity="1.000000" stroke="none" 
	d="
M689.055542,502.713501 
	C690.961670,504.268524 692.532959,505.954865 694.455444,506.608459 
	C718.847595,514.901611 743.859192,518.894287 769.662964,516.845337 
	C779.699158,516.048462 784.038574,512.745972 785.771057,502.383728 
	C787.353577,492.918304 787.451233,483.203064 788.159912,473.594727 
	C788.278625,471.985840 788.176697,470.360718 788.176697,467.622864 
	C789.211121,469.103210 789.770142,469.652527 790.034790,470.318817 
	C795.956055,485.228180 800.626648,500.474213 802.602539,516.467224 
	C805.369873,538.865601 788.559570,557.887756 765.931396,558.186890 
	C742.016724,558.503052 719.294617,553.908569 697.906860,542.943115 
	C691.634216,539.727234 687.451843,535.140930 684.850037,528.580322 
	C680.185059,516.816895 675.084534,505.225983 670.147461,493.570862 
	C669.577515,492.225250 668.889404,490.929779 667.737854,488.532166 
	C665.809448,492.790833 664.217163,496.119476 662.780823,499.514038 
	C658.367920,509.943115 654.438477,520.606567 649.435059,530.741577 
	C647.361084,534.942627 643.666748,539.117615 639.636292,541.450989 
	C616.771484,554.688416 591.738647,559.251282 565.592041,558.009216 
	C548.540039,557.199219 533.355042,541.189514 532.891113,523.951416 
	C532.480225,508.685974 536.929016,494.356903 541.806702,480.148651 
	C543.149719,476.236633 544.751953,472.413544 547.135742,468.656250 
	C547.135742,472.185364 546.843018,475.743896 547.193726,479.237823 
	C548.055969,487.828217 548.738037,496.482513 550.399109,504.932892 
	C551.816223,512.142456 556.590759,516.163330 564.443054,516.789917 
	C590.944336,518.905029 616.596252,515.075562 641.594360,506.409332 
	C647.596375,504.328583 648.934021,499.282196 645.364136,493.494781 
	C638.669250,482.641327 629.490662,474.505219 618.621399,467.828125 
	C606.304810,460.261902 594.438843,451.951630 582.508118,443.773407 
	C578.050049,440.717468 576.016663,435.903473 576.592346,430.692261 
	C578.186401,416.261963 583.579834,403.117432 591.467651,389.472992 
	C592.564819,403.448242 601.917297,410.121246 610.886108,416.856689 
	C618.734985,422.751129 626.895447,428.258179 635.144287,433.586487 
	C650.126038,443.263947 660.551758,456.396332 666.311157,473.261780 
	C666.607483,474.129425 667.069214,474.940582 667.745239,476.412170 
	C669.889343,471.380585 671.589783,466.917175 673.655273,462.629669 
	C680.485413,448.451904 691.940308,438.806549 704.899963,430.466064 
	C713.569519,424.886536 721.950745,418.813995 730.128479,412.529358 
	C737.070312,407.194489 743.231262,401.041138 743.617615,389.954163 
	C745.237061,392.155487 746.332336,393.125610 746.781128,394.335602 
	C750.706421,404.916473 754.820190,415.442902 758.257507,426.184052 
	C760.712402,433.855377 757.991150,440.519135 751.455688,445.031372 
	C740.097595,452.873322 728.700500,460.708771 716.881470,467.818359 
	C706.073364,474.319885 696.921265,482.321594 690.493713,493.110657 
	C688.996826,495.623322 689.370728,499.250488 689.055542,502.713501 
z"/>
<path fill="#CEC4B5" opacity="1.000000" stroke="none" 
	d="
M1023.089050,835.118896 
	C999.554932,848.884399 974.224670,854.273560 947.621216,853.621277 
	C926.103149,853.093567 910.133362,835.742310 911.071960,814.253845 
	C911.886902,795.597351 918.172302,778.275330 925.461792,760.220154 
	C925.952087,770.514404 926.313538,779.735596 926.879028,788.944275 
	C927.040771,791.577576 927.619446,794.221130 928.305481,796.780029 
	C931.151001,807.394531 934.713806,810.212646 945.660217,811.161743 
	C971.652832,813.415161 996.747742,809.018188 1021.336792,800.981506 
	C1028.706909,798.572693 1030.291748,793.813538 1026.148926,787.071106 
	C1019.014038,775.459045 1009.081421,766.969910 997.353149,760.064209 
	C986.052429,753.410461 975.307190,745.802795 964.412537,738.473511 
	C956.712341,733.293213 953.957825,725.929321 956.811157,717.152893 
	C960.193909,706.748535 964.201111,696.545715 968.025696,686.288330 
	C968.522522,684.956055 969.544006,683.819336 970.885193,681.705078 
	C974.129944,700.088562 989.098816,706.893982 1001.310913,716.169250 
	C1010.700745,723.300903 1020.794495,729.594116 1029.643066,737.326904 
	C1039.908813,746.298157 1046.083862,758.272583 1048.954956,771.574829 
	C1049.810425,775.537842 1049.375488,780.350098 1047.905273,784.142700 
	C1042.433960,798.256470 1036.458984,812.185364 1030.266479,826.001465 
	C1028.773560,829.332458 1025.719238,831.963684 1023.089050,835.118896 
z"/>
<path fill="#CEC4B5" opacity="1.000000" stroke="none" 
	d="
M640.520386,325.432312 
	C643.305603,320.697845 645.895264,316.274200 649.121704,310.762939 
	C661.736450,317.230530 674.399658,323.017914 686.299744,330.089569 
	C693.397705,334.307587 697.676086,341.648804 699.799133,349.847015 
	C701.222778,355.344391 701.007324,360.769287 698.252869,365.856445 
	C687.803223,385.156006 677.305664,404.429749 666.818176,423.708893 
	C666.447266,424.390656 665.992920,425.027100 664.998474,426.600983 
	C666.616577,392.777924 643.757202,376.907715 619.870544,361.100372 
	C626.724609,349.252533 633.524719,337.497833 640.520386,325.432312 
z"/>
<path fill="#CEC3B4" opacity="1.000000" stroke="none" 
	d="
M988.721008,1019.692871 
	C985.585144,1021.327698 982.742371,1023.539795 979.727539,1023.806213 
	C973.124084,1024.389771 966.433472,1023.986877 958.859009,1023.986877 
	C965.113770,1019.981689 966.223572,1014.160828 966.451721,1008.278198 
	C966.851929,997.960999 966.784302,987.624817 966.855469,977.296204 
	C966.904846,970.130737 967.207642,962.941406 966.734253,955.806763 
	C966.407837,950.887268 964.947815,946.043091 963.968628,941.033691 
	C968.741760,941.033691 974.728516,940.777893 980.682922,941.107056 
	C986.399353,941.423096 989.798706,945.890320 989.749573,952.248352 
	C989.696777,959.078552 989.713379,965.911987 989.487793,972.737000 
	C989.371887,976.241211 990.400208,977.955078 994.249878,977.856934 
	C1001.879578,977.662231 1009.517639,977.799438 1017.991699,977.799438 
	C1017.991699,969.593933 1018.045959,961.840515 1017.977905,954.088196 
	C1017.893311,944.453308 1021.147095,941.018005 1030.570923,940.998840 
	C1035.389526,940.989014 1040.208252,940.997131 1045.996216,940.997131 
	C1039.598755,947.861267 1040.869629,955.787659 1040.843506,963.417297 
	C1040.794312,977.747986 1040.750366,992.082092 1041.017334,1006.408875 
	C1041.132202,1012.579712 1041.997070,1018.746704 1047.683716,1023.750366 
	C1039.699707,1023.750366 1032.298218,1024.231812 1024.994263,1023.594604 
	C1019.376282,1023.104431 1016.931274,1018.203369 1017.138000,1012.166199 
	C1017.461609,1002.716675 1017.223755,993.248047 1017.223755,982.901367 
	C1009.060974,982.901367 1000.478516,982.783264 991.911011,983.087585 
	C991.072693,983.117310 989.655273,985.743225 989.648743,987.169250 
	C989.611572,995.327454 990.026306,1003.486938 990.048767,1011.646667 
	C990.055847,1014.225952 989.327698,1016.807190 988.721008,1019.692871 
z"/>
<path fill="#CEC3B4" opacity="1.000000" stroke="none" 
	d="
M359.102814,1018.065796 
	C351.419098,1020.132568 344.126770,1023.276062 336.691040,1023.662720 
	C320.622650,1024.498169 304.480774,1023.919800 287.429596,1023.919800 
	C293.321533,1020.356689 294.852112,1015.270081 294.958649,1009.877563 
	C295.320496,991.560303 295.620483,973.234558 295.409149,954.918335 
	C295.356537,950.361511 293.290894,945.828003 292.218384,941.554260 
	C302.670380,941.554260 314.252472,941.384827 325.826630,941.615051 
	C333.288818,941.763428 340.893738,941.707092 348.164551,943.126404 
	C366.119385,946.631226 378.091461,959.666748 380.634064,977.243286 
	C383.062988,994.034424 375.209564,1009.089355 359.102814,1018.065796 
M334.006195,1018.907471 
	C342.875031,1017.754517 348.314606,1012.341614 351.553467,1004.449951 
	C356.586151,992.187561 356.628448,979.449524 354.214081,966.701233 
	C351.625671,953.034180 343.554474,946.458252 329.625763,945.901001 
	C321.316925,945.568542 318.188965,948.566528 318.155121,957.081238 
	C318.113464,967.557190 318.070007,978.034790 318.205383,988.509338 
	C318.299744,995.813110 318.390320,1003.140381 319.047089,1010.406128 
	C319.594025,1016.457092 322.542450,1018.719360 328.650940,1018.967407 
	C330.144867,1019.028076 331.643402,1018.975952 334.006195,1018.907471 
z"/>
<path fill="#CDC3B3" opacity="1.000000" stroke="none" 
	d="
M659.468872,953.488281 
	C659.502686,964.043762 659.502686,974.151794 659.502686,984.966736 
	C675.968628,981.042480 685.750854,990.181885 694.990662,1000.542847 
	C699.197815,1005.260559 703.139282,1010.316650 707.895203,1014.413757 
	C712.328125,1018.232422 717.681213,1020.982910 721.256897,1023.310364 
	C714.442261,1023.310364 705.693970,1023.903015 697.066956,1023.134766 
	C689.266296,1022.440186 683.285461,1017.657593 678.658508,1011.363342 
	C675.208374,1006.669861 671.984253,1001.786865 668.235962,997.345642 
	C666.397705,995.167542 663.596680,993.801819 661.231384,992.068359 
	C660.669067,992.410583 660.106812,992.752747 659.544495,993.094971 
	C659.544495,998.177856 659.558777,1003.260803 659.541626,1008.343628 
	C659.500793,1020.463928 655.919250,1023.994812 643.674622,1024.010132 
	C640.356812,1024.014282 637.038940,1024.010742 634.726318,1024.010742 
	C635.670715,1020.141541 637.333862,1016.382019 637.387268,1012.599731 
	C637.673889,992.281799 637.668030,971.957153 637.479431,951.637451 
	C637.447632,948.211792 636.030212,944.798889 635.205200,941.169800 
	C639.750000,941.169800 645.057922,940.760925 650.273926,941.278748 
	C656.105042,941.857666 658.819397,945.792053 659.468872,953.488281 
z"/>
<path fill="#CDBFB0" opacity="1.000000" stroke="none" 
	d="
M432.998901,906.179199 
	C383.863617,906.179138 335.228394,906.179138 286.205902,906.179138 
	C286.205902,903.711548 286.205902,901.806458 286.205902,899.419495 
	C288.142365,899.328735 289.926697,899.172119 291.711029,899.171875 
	C391.349823,899.159302 490.988678,899.191833 590.627319,899.064880 
	C595.614136,899.058533 596.889282,900.764893 595.375305,906.179199 
	C541.602722,906.179199 487.550842,906.179199 432.998901,906.179199 
z"/>
<path fill="#CDBFB0" opacity="1.000000" stroke="none" 
	d="
M750.115967,906.189209 
	C746.681152,906.190308 743.727661,906.190308 740.925049,906.190308 
	C739.643127,899.608948 739.917908,899.154419 745.358276,899.153870 
	C845.168945,899.143616 944.979614,899.152405 1044.790283,899.161682 
	C1047.288452,899.161926 1049.932861,898.735046 1049.870850,902.723755 
	C1049.814087,906.362549 1047.284912,906.043274 1045.028809,906.165344 
	C1042.703125,906.291199 1040.364746,906.181580 1038.031982,906.181580 
	C942.220398,906.183350 846.408813,906.185791 750.115967,906.189209 
z"/>
<path fill="#CEC2B3" opacity="1.000000" stroke="none" 
	d="
M840.550171,943.008423 
	C853.135132,964.741638 865.589355,986.185608 877.913757,1007.703918 
	C883.012329,1016.606018 878.885193,1023.815002 868.733582,1023.970032 
	C862.257935,1024.068970 855.779541,1023.988586 849.389648,1023.988586 
	C850.975342,1021.780579 853.108276,1019.908997 853.734314,1017.624512 
	C854.338562,1015.419617 854.071411,1012.431519 853.010681,1010.402527 
	C845.692749,996.405457 838.070679,982.567261 830.518616,968.693176 
	C830.308899,968.307983 829.787659,968.092407 828.933472,967.422974 
	C824.017700,976.628174 819.119812,985.644226 814.372864,994.739075 
	C810.695801,1001.784119 806.522644,1008.595947 807.945312,1017.290710 
	C808.544128,1020.950134 805.924927,1023.666138 801.962097,1023.848999 
	C797.042297,1024.075806 792.104065,1023.903381 786.326965,1023.903381 
	C802.510864,1010.141968 809.680359,991.290466 819.890381,974.489746 
	C825.764954,964.823059 831.085876,954.820984 836.817871,945.065002 
	C837.458618,943.974365 839.158508,943.506042 840.550171,943.008423 
z"/>
<path fill="#CEC2B3" opacity="1.000000" stroke="none" 
	d="
M482.866638,1024.032471 
	C476.508972,1024.002930 470.505188,1024.218750 464.527557,1023.917236 
	C456.574127,1023.516174 452.233398,1016.224487 456.150635,1009.313538 
	C468.780975,987.030518 481.720490,964.922852 494.554260,942.755371 
	C494.709412,942.487366 495.042297,942.322266 495.683685,941.775269 
	C513.857300,968.574219 525.082214,999.788940 547.673218,1023.976501 
	C543.151306,1023.976501 538.246155,1024.195190 533.369873,1023.913330 
	C528.742554,1023.645935 526.302124,1020.953186 526.941040,1016.241394 
	C527.780762,1010.049316 525.784546,1004.778137 523.027832,999.567078 
	C517.368286,988.868713 511.700470,978.174744 505.550812,966.562805 
	C503.348419,970.425720 501.603577,973.362122 499.976349,976.362366 
	C494.109100,987.180115 488.112213,997.932617 482.502167,1008.882935 
	C479.134430,1015.456543 480.136353,1019.003479 485.832031,1023.831360 
	C484.798920,1023.917297 484.015564,1023.982483 482.866638,1024.032471 
z"/>
<path fill="#CDC3B3" opacity="1.000000" stroke="none" 
	d="
M355.140747,686.817749 
	C353.997498,685.811462 353.155060,685.000977 352.248596,684.269836 
	C345.645660,678.944275 345.655182,678.955811 349.216003,671.440552 
	C352.917877,663.627808 356.589783,655.800903 360.247223,648.038635 
	C380.791748,652.568665 391.159149,668.698120 383.019958,685.606384 
	C378.696594,694.587646 374.582184,703.669556 369.848602,712.792358 
	C368.486877,702.117371 363.207977,693.863037 355.140747,686.817749 
z"/>
<path fill="#CEC2B3" opacity="1.000000" stroke="none" 
	d="
M324.615295,706.682007 
	C320.623688,697.860168 314.214783,691.610168 306.767059,686.407227 
	C304.202240,684.615417 303.637695,683.162659 305.036133,680.319458 
	C309.151733,671.951965 313.085449,663.491760 316.918884,654.990540 
	C318.205811,652.136536 319.747772,651.704651 322.333038,653.251648 
	C325.903076,655.387817 329.730713,657.124268 333.166626,659.447937 
	C342.139099,665.515991 345.664093,675.915222 342.475708,686.224548 
	C341.985474,687.809631 341.352234,689.363647 340.645569,690.866394 
	C336.481201,699.722656 332.275452,708.559509 327.830444,717.937012 
	C326.685852,713.841675 325.733734,710.434937 324.615295,706.682007 
z"/>
<path fill="#CEC0B1" opacity="1.000000" stroke="none" 
	d="
M780.156494,673.420288 
	C779.202637,669.604431 778.266357,666.235291 777.499451,662.828064 
	C776.184265,656.985168 778.032410,653.841553 783.726196,652.431396 
	C786.422791,651.763611 789.212891,651.473145 792.765686,650.876526 
	C791.968872,658.876526 791.838684,666.381165 790.375427,673.616211 
	C787.082092,689.899597 773.451233,694.410339 759.331970,684.206848 
	C758.936340,684.391357 758.382507,684.487549 758.078857,684.815491 
	C752.977417,690.326599 746.859070,692.789551 739.642456,689.935059 
	C732.009338,686.915833 729.012695,680.414795 727.940674,672.682861 
	C727.535034,669.757568 726.592346,666.906738 725.741699,663.390808 
	C729.136353,662.811096 733.291626,661.762451 737.479187,661.612122 
	C738.600891,661.571777 740.796814,664.259338 740.815491,665.716248 
	C740.874817,670.350037 739.674866,675.015137 739.885254,679.626038 
	C740.013367,682.432129 741.263428,685.711670 743.148865,687.696106 
	C744.121033,688.719238 747.877441,687.963257 749.853577,686.971008 
	C753.139832,685.320923 754.171326,682.104126 753.339294,678.444275 
	C752.822937,676.172852 752.297424,673.903198 751.746338,671.640015 
	C749.323547,661.690186 751.478088,658.386475 761.671448,656.497192 
	C762.801086,656.287781 763.953369,656.200378 766.112793,655.927979 
	C765.802551,660.258240 765.533142,664.271973 765.221802,668.282410 
	C764.977051,671.435608 764.692017,674.585876 764.404419,677.735596 
	C764.021667,681.927368 764.894043,685.493164 769.486877,686.784241 
	C773.326111,687.863586 778.490967,684.882629 779.705566,680.697510 
	C780.330627,678.543640 780.096313,676.140442 780.156494,673.420288 
z"/>
<path fill="#CEC0B1" opacity="1.000000" stroke="none" 
	d="
M651.892151,903.041199 
	C651.894104,905.851135 651.480042,908.280945 652.006775,910.485901 
	C652.616821,913.039490 653.444580,916.361206 655.317627,917.543213 
	C656.924500,918.557312 661.080322,917.880310 662.410889,916.412170 
	C664.227539,914.407959 665.147705,910.939575 665.130005,908.107178 
	C665.112122,905.256409 663.461060,902.420288 662.550171,899.569946 
	C659.903259,891.287476 661.972412,887.470215 670.343140,885.249023 
	C671.914490,884.832031 673.524658,884.560974 676.016907,884.031311 
	C676.016907,891.607849 676.002319,898.683472 676.022461,905.759033 
	C676.034180,909.885437 676.938660,913.535767 681.795837,914.309509 
	C687.881531,915.278992 693.119446,909.439331 691.889709,902.687195 
	C691.211182,898.961792 689.623840,895.399902 688.422241,891.772217 
	C685.636230,883.360779 686.894531,880.862000 695.400085,878.185242 
	C697.271179,877.596375 699.207031,877.213501 702.750610,876.325500 
	C701.894348,886.686707 702.269348,896.443542 700.026245,905.555908 
	C697.413940,916.167908 685.685181,920.062256 675.753784,915.076355 
	C674.298950,914.346008 672.924072,913.456421 671.637695,912.713074 
	C671.259949,912.891663 671.060425,912.923096 670.965881,913.039612 
	C666.258911,918.844116 660.675659,922.619202 652.799500,920.299622 
	C644.431824,917.835327 640.894958,911.364075 639.097534,903.427979 
	C638.509338,900.830750 637.333008,898.366760 636.173889,895.141418 
	C639.574280,894.247192 643.586243,892.871704 647.708740,892.314514 
	C648.856689,892.159363 651.017212,894.196960 651.495178,895.633728 
	C652.199951,897.752563 651.813599,900.234436 651.892151,903.041199 
z"/>
<path fill="#CEC2B3" opacity="1.000000" stroke="none" 
	d="
M674.648804,956.842041 
	C678.161621,949.683533 684.296997,948.697083 690.887878,949.037720 
	C691.882629,949.089111 693.581970,950.625305 693.623230,951.535034 
	C693.877991,957.155884 693.751221,962.794006 693.751221,967.103149 
	C686.460327,970.781311 680.093506,973.993286 673.199463,977.471252 
	C673.588623,971.227051 674.026245,964.204590 674.648804,956.842041 
z"/>
<path fill="#CDBFB0" opacity="1.000000" stroke="none" 
	d="
M312.687317,612.732361 
	C311.306824,611.794006 310.104523,610.516052 308.852875,609.185608 
	C308.180176,610.305725 307.153717,612.014954 305.339752,615.035461 
	C304.292694,613.027161 303.693817,611.878479 302.743073,610.054932 
	C301.832001,611.908752 301.263336,613.065918 300.937225,613.729492 
	C299.725769,613.376892 299.425323,613.322205 299.427490,613.285400 
	C299.682159,608.971313 299.959259,604.658569 300.235168,600.345764 
	C301.316345,600.851685 302.822968,601.076599 303.383972,601.926025 
	C304.344147,603.379822 304.712433,605.224548 305.771332,608.109375 
	C306.871277,605.525085 307.302582,603.779358 308.282349,602.432739 
	C309.124390,601.275513 310.592896,600.574036 312.865479,598.851685 
	C312.865479,604.271606 312.865479,608.332153 312.687317,612.732361 
z"/>
<path fill="#CDBFB0" opacity="1.000000" stroke="none" 
	d="
M294.193237,599.908691 
	C295.197845,600.109558 295.829834,600.271729 296.198822,600.366455 
	C295.054657,602.345642 293.520782,604.153320 292.941406,606.227661 
	C292.301453,608.518555 292.536407,611.053894 292.390320,613.482727 
	C291.909149,613.487976 291.427979,613.493164 290.946838,613.498352 
	C290.043365,609.232300 289.139923,604.966187 288.115326,600.128113 
	C289.117859,600.082764 291.469269,599.976379 294.193237,599.908691 
z"/>
<path fill="#7F5C46" opacity="1.000000" stroke="none" 
	d="
M396.738464,765.642517 
	C392.237213,780.347839 382.906586,790.211365 369.114288,795.686340 
	C348.274658,803.958801 326.664062,809.216553 304.314484,811.306274 
	C303.036957,811.425781 301.738556,811.321716 299.648743,811.321716 
	C302.264435,797.824707 303.380615,784.486877 316.715942,776.669128 
	C339.525909,763.296875 364.014526,753.819458 388.786377,744.941833 
	C393.422333,743.280396 397.998535,741.452209 403.874542,739.217102 
	C401.305969,748.751282 399.081787,757.007202 396.738464,765.642517 
z"/>
<path fill="#7F5C46" opacity="1.000000" stroke="none" 
	d="
M333.572998,1018.941589 
	C331.643402,1018.975952 330.144867,1019.028076 328.650940,1018.967407 
	C322.542450,1018.719360 319.594025,1016.457092 319.047089,1010.406128 
	C318.390320,1003.140381 318.299744,995.813110 318.205383,988.509338 
	C318.070007,978.034790 318.113464,967.557190 318.155121,957.081238 
	C318.188965,948.566528 321.316925,945.568542 329.625763,945.901001 
	C343.554474,946.458252 351.625671,953.034180 354.214081,966.701233 
	C356.628448,979.449524 356.586151,992.187561 351.553467,1004.449951 
	C348.314606,1012.341614 342.875031,1017.754517 333.572998,1018.941589 
z"/>
</svg>